<?xml version="1.0" encoding="UTF-8"?>
<svg width="80px" height="80px" viewBox="0 0 80 80" version="1.1" xmlns="http://www.w3.org/2000/svg" xmlns:xlink="http://www.w3.org/1999/xlink">
    <!-- Generator: Sketch 52.2 (67145) - http://www.bohemiancoding.com/sketch -->
    <title>Bitcoin cash</title>
    <desc>Created with Sketch.</desc>
    <g id="Page-1" stroke="none" stroke-width="1" fill="none" fill-rule="evenodd">
        <g id="Bitcoin-cash">
            <rect id="Rectangle" fill="#71C75A" x="0" y="0" width="80" height="80" rx="10"></rect>
            <g id="bitcoin-cash" transform="translate(0.000000, 19.000000)" fill-rule="nonzero">
                <g id="Vector" fill="#FFFFFF">
                    <path d="M0,0.208064516 L19.9594595,0.208064516 C16.4831081,2.61236559 13.6689189,5.80268817 11.7060811,9.52473118 C9.74324324,13.2467742 8.72635135,17.361828 8.72635135,21.5462366 C8.72635135,25.7306452 9.74324324,29.8688172 11.7060811,33.5908602 C13.6689189,37.3129032 16.4831081,40.5032258 19.9594595,42.9075269 L0,42.9075269 L0,0.208064516 Z M39.9290541,0.208064516 C34.2297297,0.208064516 28.7668919,2.45053763 24.722973,6.45 C20.7027027,10.4494624 18.4324324,15.8822581 18.4324324,21.5462366 C18.4324324,27.2102151 20.7027027,32.6430108 24.722973,36.6424731 C28.7432432,40.6419355 34.2297297,42.8844086 39.9290541,42.8844086 C45.6283784,42.8844086 51.0912162,40.6419355 55.1351351,36.6424731 C59.1554054,32.6430108 61.4256757,27.2102151 61.4256757,21.5462366 C61.4256757,15.8822581 59.1554054,10.4494624 55.1351351,6.45 C51.1148649,2.45053763 45.6283784,0.208064516 39.9290541,0.208064516 Z M79.9594595,0.208064516 L60,0.208064516 C63.4763514,2.61236559 66.2905405,5.80268817 68.2533784,9.52473118 C70.2162162,13.2467742 71.2331081,17.361828 71.2331081,21.5693548 C71.2331081,25.7537634 70.2162162,29.8919355 68.2533784,33.6139785 C66.2905405,37.3360215 63.4763514,40.5263441 60,42.9306452 L79.9594595,42.9306452 L79.9594595,0.208064516 Z" id="path1_fill"></path>
                </g>
                <g id="Vector_1_" transform="translate(29.000000, 9.000000)" fill="#71C75A">
                    <path d="M18.2695652,6.13333333 C17.2891304,3.53333333 14.6108696,3.22222222 11.4782609,3.68888889 L10.4978261,0 L8.10652174,0.555555556 L9.06304348,4.15555556 C8.44130435,4.31111111 7.79565217,4.46666667 7.17391304,4.62222222 L6.2173913,1 L3.82608696,1.55555556 L4.80652174,5.24444444 C4.30434783,5.37777778 3.77826087,5.51111111 3.3,5.62222222 L3.3,5.6 L0,6.37777778 L0.645652174,8.77777778 C0.645652174,8.77777778 2.39130435,8.33333333 2.3673913,8.37777778 C3.32391304,8.15555556 3.77826087,8.6 3.99347826,9.04444444 L5.1173913,13.2666667 C5.21304348,13.2444444 5.28478261,13.2222222 5.38043478,13.2222222 L5.1173913,13.2888889 L6.67173913,19.2 C6.69565217,19.4888889 6.64782609,20 5.97826087,20.1555556 C6.02608696,20.1777778 4.2326087,20.5555556 4.2326087,20.5555556 L4.47173913,23.3555556 L7.58043478,22.6222222 C8.15434783,22.4888889 8.72826087,22.3555556 9.27826087,22.2444444 L10.2586957,25.9777778 L12.65,25.4222222 L11.6695652,21.7111111 C12.3391304,21.5777778 12.9608696,21.4222222 13.5826087,21.2888889 L14.5630435,24.9777778 L16.9543478,24.4222222 L15.973913,20.6888889 C19.9195652,19.5333333 22.4782609,17.9111111 21.8804348,14.2666667 C21.4021739,11.3333333 19.6326087,10.4 17.2173913,10.4222222 C18.4369565,9.42222222 18.9869565,8.04444444 18.2695652,6.13333333 Z M17.05,14.9111111 C17.7913043,17.7111111 12.626087,18.5777778 11.023913,18.9555556 L9.70869565,14 C11.3347826,13.6444444 16.2847826,12.0222222 17.05,14.9111111 Z M14.1086957,8.2 C14.7782609,10.7333333 10.473913,11.4444444 9.13478261,11.7555556 L7.93913043,7.26666667 C9.27826087,6.93333333 13.3913043,5.53333333 14.1086957,8.2 Z" id="path2_fill"></path>
                </g>
            </g>
        </g>
    </g>
</svg>