<?xml version="1.0" encoding="utf-8"?>
<!-- Generator: Adobe Illustrator 21.0.2, SVG Export Plug-In . SVG Version: 6.00 Build 0)  -->
<svg version="1.1" id="Слой_1" xmlns="http://www.w3.org/2000/svg" xmlns:xlink="http://www.w3.org/1999/xlink" x="0px" y="0px"
	 viewBox="0 0 39.6 39.6" style="enable-background:new 0 0 39.6 39.6;" xml:space="preserve">
<style type="text/css">
	.st0{fill-rule:evenodd;clip-rule:evenodd;fill:#F1F2F4;}
</style>
<g id="_x32_">
	<path class="st0" d="M22,13.7c-0.7,0.7-0.6,1.8,0.2,2.6c0.8,0.8,1.9,0.9,2.6,0.2c0.7-0.7,0.6-1.8-0.2-2.6C23.8,13,22.8,13,22,13.7z
		"/>
	<path class="st0" d="M29.8,0h-20C4.4,0,0,4.4,0,9.8v20c0,5.4,4.4,9.8,9.8,9.8h20c5.4,0,9.8-4.4,9.8-9.8v-20C39.6,4.4,35.2,0,29.8,0
		z M27.9,19.6c-1.9,1.9-4.6,2.3-7.2,1l-2.8,2.8l1.9,1.9c0.4,0.4,0.4,0.9,0,1.3l-0.9,0.9c-0.4,0.4-1,0.4-1.3,0l-1.9-1.9l-0.8,0.8
		l0.9,0.9c0.4,0.4,0.4,0.9,0,1.3l-0.9,0.9c-0.4,0.4-1,0.4-1.3,0l-0.9-0.9l-0.8,0.8c-0.4,0.4-1,0.4-1.3,0l-1.5-1.5
		c-0.4-0.4-0.4-0.9,0-1.3l8.9-8.8c-1.3-2.6-0.9-5.2,1-7.1c2.5-2.5,6.3-2.4,8.9,0.1C30.4,13.3,30.4,17.1,27.9,19.6z"/>
</g>
</svg>
