<?xml version="1.0" encoding="utf-8"?>
<!-- Generator: Adobe Illustrator 21.0.2, SVG Export Plug-In . SVG Version: 6.00 Build 0)  -->
<svg version="1.1" id="Слой_1" xmlns="http://www.w3.org/2000/svg" xmlns:xlink="http://www.w3.org/1999/xlink" x="0px" y="0px"
	 viewBox="0 0 39.6 39.6" style="enable-background:new 0 0 39.6 39.6;" xml:space="preserve">
<style type="text/css">
	.st0{fill-rule:evenodd;clip-rule:evenodd;fill:#F1F2F4;}
</style>
<g id="_x33_">
	<path class="st0" d="M17.1,18.6c-0.5,0-1,0.4-1,1v2c0,0.5,0.4,1,1,1s1-0.4,1-1v-2C18.1,19,17.6,18.6,17.1,18.6z"/>
	<path class="st0" d="M21,18.6c-0.5,0-1,0.4-1,1v2c0,0.5,0.4,1,1,1c0.5,0,1-0.4,1-1v-2C22,19,21.5,18.6,21,18.6z"/>
	<path class="st0" d="M13.2,18.6c-0.5,0-1,0.4-1,1v2c0,0.5,0.4,1,1,1c0.5,0,1-0.4,1-1v-2C14.2,19,13.7,18.6,13.2,18.6z"/>
	<path class="st0" d="M29.8,0h-20C4.4,0,0,4.4,0,9.8v20c0,5.4,4.4,9.8,9.8,9.8h20c5.4,0,9.8-4.4,9.8-9.8v-20C39.6,4.4,35.2,0,29.8,0
		z M26.4,25.4H12.7c-2.7,0-4.9-2.2-4.9-4.9c0-2.7,2.2-4.9,4.9-4.9h13.7c2.7,0,4.9,2.2,4.9,4.9C31.3,23.2,29.1,25.4,26.4,25.4z"/>
	<path class="st0" d="M26.9,20.5h-2c-0.5,0-1,0.4-1,1c0,0.5,0.4,1,1,1h2c0.5,0,1-0.4,1-1C27.8,20.9,27.4,20.5,26.9,20.5z"/>
</g>
</svg>
