<?xml version="1.0" encoding="utf-8"?>
<!-- Generator: Adobe Illustrator 21.0.2, SVG Export Plug-In . SVG Version: 6.00 Build 0)  -->
<svg version="1.1" id="Слой_1" xmlns="http://www.w3.org/2000/svg" xmlns:xlink="http://www.w3.org/1999/xlink" x="0px" y="0px"
	 viewBox="0 0 39.6 39.6" style="enable-background:new 0 0 39.6 39.6;" xml:space="preserve">
<style type="text/css">
	.st0{fill-rule:evenodd;clip-rule:evenodd;fill:#F1F2F4;}
</style>
<g id="_x37_">
	<path class="st0" d="M25.2,19.1h-5.5c-0.5,0-0.9,0.4-1,1c0,0.6,0.4,1,1,1.1h5.5c0.5,0,0.9-0.4,1-1C26.2,19.6,25.8,19.1,25.2,19.1z"
		/>
	<path class="st0" d="M16.7,19.1l-1.3-0.2l-0.6-1.2c0-0.1-0.1-0.1-0.2-0.2c-0.2-0.1-0.4,0-0.5,0.2l-0.6,1.2l-1.3,0.2
		c-0.1,0-0.3,0.1-0.3,0.3c0,0.1,0,0.3,0.1,0.4l0.9,0.9L12.7,22c0,0.1,0,0.2,0,0.3c0.1,0.2,0.3,0.3,0.5,0.2l1.2-0.6l1.2,0.6
		c0.1,0,0.2,0.1,0.3,0c0.2,0,0.4-0.3,0.3-0.5L16,20.7l0.9-0.9c0.1-0.1,0.1-0.1,0.1-0.2C17.1,19.3,16.9,19.1,16.7,19.1z"/>
	<path class="st0" d="M29.8,0h-20C4.4,0,0,4.4,0,9.8v20c0,5.4,4.4,9.8,9.8,9.8h20c5.4,0,9.8-4.4,9.8-9.8v-20C39.6,4.4,35.2,0,29.8,0
		z M18.7,11.8c0-0.6,0.5-1,1-1h5.5c0.6,0,1,0.5,1,1.1c0,0.5-0.4,0.9-1,1h-5.5C19.2,12.8,18.7,12.4,18.7,11.8
		C18.7,11.8,18.7,11.8,18.7,11.8z M15.3,10.3c0.8,0,1.4,0.6,1.4,1.4c0,0.8-0.6,1.4-1.4,1.4c-0.8,0-1.4-0.6-1.4-1.4
		C13.9,10.9,14.5,10.3,15.3,10.3z M15.3,29.8c-0.8,0-1.4-0.6-1.4-1.4c0-0.8,0.6-1.4,1.4-1.4c0.8,0,1.4,0.6,1.4,1.4
		C16.8,29.1,16.1,29.8,15.3,29.8z M25.2,29.5h-5.5c-0.6,0-1-0.5-1-1.1c0-0.5,0.4-0.9,1-1h5.5c0.6,0,1,0.5,1,1.1
		C26.2,29,25.8,29.4,25.2,29.5z M29.3,23.3c0,0.5-0.4,0.9-0.9,0.9H9.7c-0.5,0-0.9-0.4-0.9-0.9v-6.5c0-0.5,0.4-0.9,0.9-0.9h18.6
		c0.5,0,0.9,0.4,0.9,0.9V23.3z"/>
</g>
</svg>
