<?xml version="1.0" encoding="utf-8"?>
<!-- Generator: Adobe Illustrator 21.0.2, SVG Export Plug-In . SVG Version: 6.00 Build 0)  -->
<svg version="1.1" id="Слой_1" xmlns="http://www.w3.org/2000/svg" xmlns:xlink="http://www.w3.org/1999/xlink" x="0px" y="0px"
	 viewBox="0 0 39.6 39.6" style="enable-background:new 0 0 39.6 39.6;" xml:space="preserve">
<style type="text/css">
	.st0{fill-rule:evenodd;clip-rule:evenodd;fill:#F1F2F4;}
</style>
<path id="_x31_" class="st0" d="M29.8,0h-20C4.4,0,0,4.4,0,9.8v20c0,5.4,4.4,9.8,9.8,9.8h20c5.4,0,9.8-4.4,9.8-9.8v-20
	C39.6,4.4,35.2,0,29.8,0z M20.3,8.8c3.1,0,5.7,2.6,5.7,5.8c0,3.2-2.5,5.8-5.7,5.8c-3.1,0-5.7-2.6-5.7-5.8
	C14.6,11.4,17.1,8.8,20.3,8.8z M10.7,30.8l0.4-1.6c1.1-4.6,4.8-7.7,9.2-7.7c4.3,0,8.1,3.2,9.2,7.7l0.4,1.6H10.7z"/>
</svg>
