<?xml version="1.0" encoding="utf-8"?>
<!-- Generator: Adobe Illustrator 21.0.2, SVG Export Plug-In . SVG Version: 6.00 Build 0)  -->
<svg version="1.1" id="Слой_1" xmlns="http://www.w3.org/2000/svg" xmlns:xlink="http://www.w3.org/1999/xlink" x="0px" y="0px"
	 viewBox="0 0 39.6 39.6" style="enable-background:new 0 0 39.6 39.6;" xml:space="preserve">
<style type="text/css">
	.st0{fill-rule:evenodd;clip-rule:evenodd;fill:#F1F2F4;}
</style>
<g id="_x36_">
	<path class="st0" d="M21.4,23c-2.6-0.7-5.2,0.9-5.9,3.5c-0.7,2.6,0.8,5.3,3.4,6c2.6,0.7,5.2-0.9,5.9-3.5
		C25.5,26.3,23.9,23.7,21.4,23z"/>
	<path class="st0" d="M12.1,6.6C10.4,6.1,8.5,7.2,8,9c-0.5,1.8,0.6,3.7,2.4,4.2c1.8,0.5,3.6-0.6,4.1-2.4C15,9,13.9,7.1,12.1,6.6z"/>
	<path class="st0" d="M35.7,11c-0.3,1,0.3,2.1,1.3,2.3c1,0.3,2-0.3,2.3-1.4c0.3-1-0.3-2.1-1.3-2.3C37,9.4,36,10,35.7,11z"/>
	<path class="st0" d="M36.5,15.4c-1.6-0.4-2.7-1.8-2.9-3.4l-1.3-0.1l0.1-2.1L34,9.9c0.8-1.8,2.7-2.7,4.6-2.2
		c0.3,0.1,0.6,0.2,0.8,0.3c-0.8-4.5-4.8-8-9.6-8h-20C4.4,0,0,4.4,0,9.8v20c0,5.4,4.4,9.8,9.8,9.8h20c5.4,0,9.8-4.4,9.8-9.8V15
		C38.7,15.5,37.6,15.7,36.5,15.4z M9.9,15.2C7,14.5,5.3,11.4,6,8.5c0.8-2.9,3.8-4.7,6.7-3.9c2.1,0.6,3.6,2.3,3.9,4.4l2.6,0.1
		l-0.1,2.1l-2.6-0.1c0,0.1,0,0.1,0,0.2c-0.3,1-0.8,1.9-1.6,2.6l1.6,3.3l-1.8,1l-1.6-3.2C12,15.5,10.9,15.5,9.9,15.2z M26.8,29.5
		c-1,3.7-4.8,6-8.4,5c-3.7-1-5.8-4.8-4.8-8.6c0.5-1.7,1.5-3.1,2.9-4.1L15.1,19l1.8-1l1.4,2.9c1.2-0.3,2.4-0.3,3.6,0l0,0
		c1.8,0.5,3.3,1.6,4.2,3.2C27,25.8,27.3,27.7,26.8,29.5z M31.5,11.9L20,11.3l0.1-2.1l11.5,0.6L31.5,11.9z"/>
</g>
</svg>
