<?xml version="1.0" encoding="utf-8"?>
<!-- Generator: Adobe Illustrator 21.0.2, SVG Export Plug-In . SVG Version: 6.00 Build 0)  -->
<svg version="1.1" id="Слой_1" xmlns="http://www.w3.org/2000/svg" xmlns:xlink="http://www.w3.org/1999/xlink" x="0px" y="0px"
	 viewBox="0 0 39.6 39.6" style="enable-background:new 0 0 39.6 39.6;" xml:space="preserve">
<style type="text/css">
	.st0{fill-rule:evenodd;clip-rule:evenodd;fill:#F1F2F4;}
</style>
<path id="_x35_" class="st0" d="M29.8,0h-20C4.4,0,0,4.4,0,9.8v20c0,5.4,4.4,9.8,9.8,9.8h20c5.4,0,9.8-4.4,9.8-9.8v-20
	C39.6,4.4,35.2,0,29.8,0z M8.1,24.5v-3.7H4.4v-2.5h3.7v-3.7l6.2,5L8.1,24.5z M18,33.2h-1.2V5.9H18V33.2z M21.8,33.2h-1.2V5.9h1.2
	V33.2z M34.2,20.8h-3.7v3.7l-6.2-5l6.2-5v3.7h3.7V20.8z"/>
</svg>
